<svg width="180" height="35" viewBox="0 0 180 35" fill="none" xmlns="http://www.w3.org/2000/svg">
<g clip-path="url(#clip0_584_15)">
<mask id="mask0_584_15" style="mask-type:luminance" maskUnits="userSpaceOnUse" x="0" y="0" width="180" height="35">
<path d="M180 0H0V35H180V0Z" fill="white"/>
</mask>
<g mask="url(#mask0_584_15)">
<mask id="mask1_584_15" style="mask-type:luminance" maskUnits="userSpaceOnUse" x="0" y="0" width="66" height="35">
<path d="M32.9126 0.0078125H0V34.3461H65.8252V0.0078125H32.9126Z" fill="white"/>
</mask>
<g mask="url(#mask1_584_15)">
<path fill-rule="evenodd" clip-rule="evenodd" d="M40.0413 18.4311C37.3743 19.9264 37.1206 20.5379 35.2765 22.4072C34.4885 23.2062 33.7001 23.9268 32.9125 24.5732C31.1981 25.9799 29.4867 27.0222 27.7865 27.6989C26.2279 28.3196 24.6785 28.6352 23.1453 28.6352C19.1722 28.6352 15.0908 26.5398 11.0141 22.4072C9.17018 20.5379 7.71955 18.6359 6.72109 17.185C7.71955 15.7343 9.17018 13.8321 11.0141 11.9628C15.0908 7.83045 19.1722 5.73508 23.1453 5.73508C24.2735 5.73508 25.4108 5.91017 26.5538 6.24835C27.855 4.99954 29.2936 3.82272 30.8569 2.83463C31.1798 2.63063 31.5082 2.43508 31.8412 2.24799C29.2192 0.889267 26.3048 0.0078125 23.1453 0.0078125C9.22064 0.0078125 0 17.0549 0 17.185C0 17.3153 9.22064 34.3624 23.1453 34.3624C26.7412 34.3624 30.0221 33.2241 32.9125 31.5356C34.7943 30.4365 36.51 29.1045 38.0386 27.6989C39.8575 26.0262 41.4117 24.2513 42.6641 22.6447C45.003 19.6444 46.2908 17.2338 46.2908 17.185C46.2908 17.185 42.8525 16.8547 40.0413 18.4311Z" fill="white"/>
</g>
<mask id="mask2_584_15" style="mask-type:luminance" maskUnits="userSpaceOnUse" x="0" y="0" width="66" height="35">
<path d="M32.9126 0.0078125H0V34.3461H65.8252V0.0078125H32.9126Z" fill="white"/>
</mask>
<g mask="url(#mask2_584_15)">
<path fill-rule="evenodd" clip-rule="evenodd" d="M42.6795 0.0078125C39.0838 0.0078125 35.8029 1.1459 32.9123 2.83463C31.0307 3.93372 29.315 5.26572 27.7864 6.67108C25.9673 8.34399 24.413 10.1189 23.1609 11.7252C20.822 14.7258 19.5342 17.1364 19.5342 17.185C19.5342 17.185 22.9725 17.5155 25.7837 15.9392C28.4507 14.4435 28.7044 13.8321 30.5485 11.9628C31.3365 11.164 32.1246 10.4432 32.9123 9.79708C34.6269 8.39036 36.3383 7.34799 38.0382 6.67108C39.5971 6.05063 41.1465 5.73508 42.6795 5.73508C46.6528 5.73508 50.7342 7.83045 54.8106 11.9628C56.6548 13.8321 58.1055 15.7343 59.1039 17.185C58.1055 18.6359 56.6548 20.5379 54.8106 22.4072C50.7342 26.5398 46.6528 28.6352 42.6795 28.6352C41.5515 28.6352 40.4142 28.4601 39.2712 28.1219C37.9697 29.3707 36.5314 30.5475 34.9681 31.5356C34.6452 31.7396 34.3168 31.9352 33.9835 32.1222C36.6055 33.481 39.5202 34.3624 42.6795 34.3624C56.6044 34.3624 65.825 17.3153 65.825 17.185C65.825 17.0549 56.6044 0.0078125 42.6795 0.0078125Z" fill="white"/>
</g>
<path fill-rule="evenodd" clip-rule="evenodd" d="M88.9134 28.479C88.3306 30.2695 86.998 31.5188 84.7911 31.5188C82.5839 31.5188 81.2928 30.2695 80.6683 28.479L72.2148 3.41016H78.7112L84.7494 22.6075L90.7876 3.41016H97.4086L88.9134 28.479Z" fill="white"/>
<path fill-rule="evenodd" clip-rule="evenodd" d="M103.841 19.9119H109.879L106.798 10.0844L103.841 19.9119ZM111.128 25.0342H102.633L100.843 31.197H93.9717L101.842 6.96115C102.8 4.04625 104.258 3.17188 106.839 3.17188C109.421 3.17188 110.795 4.04625 111.753 6.9197L119.665 31.197H112.961L111.128 25.0342Z" fill="white"/>
<path fill-rule="evenodd" clip-rule="evenodd" d="M145.452 31.1964H151.842V3.40625H145.452V31.1964Z" fill="white"/>
<path fill-rule="evenodd" clip-rule="evenodd" d="M157.243 3.40625C157.243 3.40625 161.384 3.40625 163.003 3.40625C166.459 3.40625 167.021 5.4198 167.854 7.79334L173.765 23.8259V3.40625H179.862L179.855 31.1961C179.855 31.1961 176.972 31.1961 175.321 31.1961C171.906 31.1961 170.454 29.7807 169.205 26.3661L163.292 10.2086V31.1964H157.243V3.40625Z" fill="white"/>
<path fill-rule="evenodd" clip-rule="evenodd" d="M134.589 17.7329C134.155 16.9382 134.212 16.7999 134.559 16.1694C134.751 15.8211 142.281 3.40625 142.281 3.40625H135.32L128.648 14.4977C128.263 15.1507 127.965 15.6563 127.823 16.2088V3.40625H121.473V31.1964H127.823V17.708C127.95 18.2846 128.204 18.8459 128.549 19.4487L135.519 31.1964H142.481C142.481 31.1964 134.769 18.0616 134.589 17.7329Z" fill="white"/>
</g>
</g>
<defs>
<clipPath id="clip0_584_15">
<rect width="180" height="35" fill="white"/>
</clipPath>
</defs>
</svg>
