<svg width="180" height="35" viewBox="0 0 180 35" fill="none" xmlns="http://www.w3.org/2000/svg">
<g clip-path="url(#clip0_567_3)">
<mask id="mask0_567_3" style="mask-type:luminance" maskUnits="userSpaceOnUse" x="0" y="0" width="66" height="35">
<path d="M32.9126 0.00878906H0V34.3471H65.8252V0.00878906H32.9126Z" fill="white"/>
</mask>
<g mask="url(#mask0_567_3)">
<path fill-rule="evenodd" clip-rule="evenodd" d="M40.0413 18.4321C37.3743 19.9274 37.1206 20.5389 35.2765 22.4082C34.4885 23.2072 33.7001 23.9278 32.9125 24.5742C31.1981 25.9809 29.4867 27.0232 27.7865 27.6999C26.2279 28.3206 24.6785 28.6362 23.1453 28.6362C19.1722 28.6362 15.0908 26.5408 11.0141 22.4082C9.17018 20.5389 7.71955 18.6369 6.72109 17.186C7.71955 15.7353 9.17018 13.8331 11.0141 11.9638C15.0908 7.83143 19.1722 5.73606 23.1453 5.73606C24.2735 5.73606 25.4108 5.91115 26.5538 6.24933C27.855 5.00052 29.2936 3.8237 30.8569 2.83561C31.1798 2.63161 31.5082 2.43606 31.8412 2.24897C29.2192 0.890244 26.3048 0.00878906 23.1453 0.00878906C9.22064 0.00878906 0 17.0559 0 17.186C0 17.3163 9.22064 34.3634 23.1453 34.3634C26.7412 34.3634 30.0221 33.2251 32.9125 31.5366C34.7943 30.4375 36.51 29.1055 38.0386 27.6999C39.8575 26.0272 41.4117 24.2523 42.6641 22.6457C45.003 19.6454 46.2908 17.2348 46.2908 17.186C46.2908 17.186 42.8525 16.8557 40.0413 18.4321Z" fill="white"/>
</g>
<mask id="mask1_567_3" style="mask-type:luminance" maskUnits="userSpaceOnUse" x="0" y="0" width="66" height="35">
<path d="M32.9126 0.00878906H0V34.3471H65.8252V0.00878906H32.9126Z" fill="white"/>
</mask>
<g mask="url(#mask1_567_3)">
<path fill-rule="evenodd" clip-rule="evenodd" d="M42.6795 0.00878906C39.0838 0.00878906 35.8029 1.14688 32.9123 2.83561C31.0307 3.9347 29.315 5.2667 27.7864 6.67206C25.9673 8.34497 24.413 10.1199 23.1609 11.7262C20.822 14.7268 19.5342 17.1374 19.5342 17.186C19.5342 17.186 22.9725 17.5165 25.7837 15.9402C28.4507 14.4445 28.7044 13.8331 30.5485 11.9638C31.3365 11.165 32.1246 10.4442 32.9123 9.79806C34.6269 8.39134 36.3383 7.34897 38.0382 6.67206C39.5971 6.05161 41.1465 5.73606 42.6795 5.73606C46.6528 5.73606 50.7342 7.83143 54.8106 11.9638C56.6548 13.8331 58.1055 15.7353 59.1039 17.186C58.1055 18.6369 56.6548 20.5389 54.8106 22.4082C50.7342 26.5408 46.6528 28.6362 42.6795 28.6362C41.5515 28.6362 40.4142 28.4611 39.2712 28.1229C37.9697 29.3717 36.5314 30.5485 34.9681 31.5366C34.6452 31.7406 34.3168 31.9362 33.9835 32.1232C36.6055 33.482 39.5202 34.3634 42.6795 34.3634C56.6044 34.3634 65.825 17.3163 65.825 17.186C65.825 17.0559 56.6044 0.00878906 42.6795 0.00878906Z" fill="white"/>
</g>
<path fill-rule="evenodd" clip-rule="evenodd" d="M88.9134 28.478C88.3306 30.2685 86.998 31.5178 84.7911 31.5178C82.5839 31.5178 81.2928 30.2685 80.6683 28.478L72.2148 3.40918H78.7112L84.7494 22.6065L90.7876 3.40918H97.4086L88.9134 28.478Z" fill="white"/>
<path fill-rule="evenodd" clip-rule="evenodd" d="M103.841 19.9129H109.879L106.798 10.0854L103.841 19.9129ZM111.128 25.0352H102.633L100.843 31.198H93.9717L101.842 6.96212C102.8 4.04722 104.258 3.17285 106.839 3.17285C109.421 3.17285 110.795 4.04722 111.753 6.92067L119.665 31.198H112.961L111.128 25.0352Z" fill="white"/>
<path fill-rule="evenodd" clip-rule="evenodd" d="M145.452 31.1983H151.842V3.4082H145.452V31.1983Z" fill="white"/>
<path fill-rule="evenodd" clip-rule="evenodd" d="M157.243 3.4082C157.243 3.4082 161.384 3.4082 163.003 3.4082C166.459 3.4082 167.021 5.42175 167.854 7.79529L173.765 23.8278V3.4082H179.862L179.855 31.198C179.855 31.198 176.972 31.198 175.321 31.198C171.906 31.198 170.454 29.7826 169.205 26.368L163.292 10.2106V31.1983H157.243V3.4082Z" fill="white"/>
<path fill-rule="evenodd" clip-rule="evenodd" d="M134.589 17.7348C134.155 16.9401 134.212 16.8018 134.559 16.1713C134.751 15.823 142.281 3.4082 142.281 3.4082H135.32L128.648 14.4997C128.263 15.1527 127.965 15.6583 127.823 16.2108V3.4082H121.473V31.1983H127.823V17.71C127.95 18.2866 128.204 18.8478 128.549 19.4506L135.519 31.1983H142.481C142.481 31.1983 134.769 18.0635 134.589 17.7348Z" fill="white"/>
</g>
<defs>
<clipPath id="clip0_567_3">
<rect width="180" height="35" fill="white"/>
</clipPath>
</defs>
</svg>
