<svg width="232" height="18" viewBox="0 0 232 18" fill="none" xmlns="http://www.w3.org/2000/svg">
<g clip-path="url(#clip0_584_5)">
<mask id="mask0_584_5" style="mask-type:luminance" maskUnits="userSpaceOnUse" x="0" y="0" width="232" height="18">
<path d="M232 0H0V18H232V0Z" fill="white"/>
</mask>
<g mask="url(#mask0_584_5)">
<path d="M3.93428 2.98048L11.925 17.4879H21.162L29.0061 2.98048H32.9403V0.367188H21.1131V2.98048H24.5342L18.8161 13.5558L13.0247 2.98048H17.1789V0.367188H0V2.98048H3.93428Z" fill="white"/>
<path d="M105.663 2.98048V0.367188H121.498V2.98048H117.539V14.8257H121.205C124.601 14.8257 126.801 12.6033 126.801 9.55037H129.415V17.4879H105.639V14.8257H109.622V2.98048H105.663Z" fill="white"/>
<path d="M67.2738 0C59.3321 0 55.1045 3.95658 55.1045 8.93894C55.1045 13.9702 59.1609 18 67.3228 18C75.4845 18 79.4921 13.9702 79.4921 8.93894C79.4921 3.95658 75.2157 0 67.2738 0ZM67.2006 15.2891C64.2926 15.2402 63.0219 12.0163 63.0708 8.84125C63.1196 5.5441 64.708 2.66215 67.4205 2.71099C70.1329 2.75984 71.5747 5.69064 71.5258 8.98779C71.4525 12.0896 70.1818 15.3378 67.2006 15.2891Z" fill="white"/>
<path d="M156.442 2.98048L164.408 17.4879H173.669L181.514 2.98048H185.448V0.367188H173.621V2.98048H177.041L171.324 13.5558L165.533 2.98048H169.686V0.367188H152.508V2.98048H156.442Z" fill="white"/>
<path d="M219.783 0C211.84 0 207.613 3.95658 207.613 8.93894C207.613 13.9702 211.669 18 219.831 18C227.993 18 232 13.9702 232 8.93894C232 3.95658 227.749 0 219.783 0ZM219.685 15.2891C216.777 15.2402 215.506 12.0163 215.555 8.84125C215.604 5.5441 217.192 2.66215 219.904 2.71099C222.617 2.75984 224.059 5.69064 224.009 8.98779C223.961 12.0896 222.691 15.3378 219.685 15.2891Z" fill="white"/>
</g>
</g>
<defs>
<clipPath id="clip0_584_5">
<rect width="232" height="18" fill="white"/>
</clipPath>
</defs>
</svg>
