<svg width="183" height="14" viewBox="0 0 183 14" fill="none" xmlns="http://www.w3.org/2000/svg">
<g clip-path="url(#clip0_567_43)">
<path d="M3.10333 2.31772L9.40636 13.6013H16.6924L22.8798 2.31772H25.9831V0.285156H16.6539V2.31772H19.3524L14.842 10.543L10.2738 2.31772H13.5506V0.285156H0V2.31772H3.10333Z" fill="white"/>
<path d="M83.3464 2.31772V0.285156H95.8368V2.31772H92.7142V11.5307H95.6055C98.2848 11.5307 100.02 9.80212 100.02 7.42763H102.082V13.6013H83.3271V11.5307H86.469V2.31772H83.3464Z" fill="white"/>
<path d="M53.0649 0C46.8005 0 43.4658 3.07734 43.4658 6.95251C43.4658 10.8657 46.6655 14 53.1035 14C59.5414 14 62.7026 10.8657 62.7026 6.95251C62.7026 3.07734 59.3294 0 53.0649 0ZM53.0071 11.8915C50.7133 11.8535 49.711 9.346 49.7496 6.87653C49.7881 4.31208 51.041 2.07056 53.1806 2.10855C55.3201 2.14654 56.4574 4.42605 56.4188 6.9905C56.361 9.40299 55.3587 11.9294 53.0071 11.8915Z" fill="white"/>
<path d="M123.4 2.31772L129.684 13.6013H136.989L143.177 2.31772H146.28V0.285156H136.951V2.31772H139.649L135.139 10.543L130.571 2.31772H133.847V0.285156H120.297V2.31772H123.4Z" fill="white"/>
<path d="M173.363 0C167.098 0 163.764 3.07734 163.764 6.95251C163.764 10.8657 166.963 14 173.401 14C179.839 14 183 10.8657 183 6.95251C183 3.07734 179.647 0 173.363 0ZM173.286 11.8915C170.992 11.8535 169.99 9.346 170.028 6.87653C170.067 4.31208 171.32 2.07056 173.459 2.10855C175.599 2.14654 176.736 4.42605 176.697 6.9905C176.659 9.40299 175.657 11.9294 173.286 11.8915Z" fill="white"/>
</g>
<defs>
<clipPath id="clip0_567_43">
<rect width="183" height="14" fill="white"/>
</clipPath>
</defs>
</svg>
